<?xml version="1.0" encoding="UTF-8"?><svg id="a" xmlns="http://www.w3.org/2000/svg" viewBox="0 0 99.79 99.89"><defs><style>.b{fill:#8e7bef;}</style></defs><path class="b" d="M89.02,82.11c-.41-.11-.91-.05-1.49,.16-7.7,3.53-15.19,6.04-22.46,7.53-15.71,3.2-31.03,1.53-45.93-5.01-4.14-1.83-9.89-4.9-17.25-9.25-.19-.15-.42-.24-.66-.25-.25-.01-.46,.01-.66,.11-.2,.1-.35,.22-.46,.39-.11,.16-.14,.39-.05,.68,.08,.28,.26,.59,.58,.93,1.3,1.53,2.91,3.15,4.83,4.88,1.91,1.73,4.45,3.68,7.61,5.85,3.16,2.17,6.48,4.11,9.91,5.8,3.45,1.69,7.45,3.11,12.01,4.26,4.56,1.15,9.13,1.72,13.68,1.72s8.93-.46,13.19-1.36c4.28-.91,7.88-1.99,10.81-3.24,2.93-1.24,5.63-2.62,8.1-4.12,2.48-1.5,4.3-2.78,5.49-3.79,1.19-1.02,2.04-1.83,2.53-2.43,.57-.71,.86-1.33,.86-1.86,.01-.56-.21-.89-.62-.99ZM51.82,29.5c-1.9,.16-4.19,.51-6.88,1.04-2.69,.51-5.18,1.16-7.48,1.93-2.3,.76-4.65,1.83-7.04,3.18-2.4,1.35-4.44,2.9-6.13,4.63-1.69,1.73-3.06,3.89-4.14,6.5-1.08,2.6-1.61,5.46-1.61,8.59,0,3.39,.59,6.4,1.79,9.06,1.19,2.66,2.78,4.75,4.78,6.3,1.99,1.55,4.25,2.76,6.75,3.65,2.5,.89,5.15,1.29,7.9,1.18,2.75-.11,5.44-.54,8.05-1.29,2.6-.74,5.05-1.93,7.33-3.54s4.14-3.53,5.6-5.71c.54,.82,1.01,1.44,1.44,1.84l1.09,1.11c.73,.74,1.84,1.83,3.34,3.26,1.49,1.44,3.01,2.84,4.54,4.21l13.05-12.49-.75-.61c-.54-.41-1.18-1-1.9-1.79-.73-.77-1.45-1.64-2.15-2.56-.71-.93-1.33-2.01-1.84-3.24-.51-1.23-.78-2.41-.78-3.56V18.33c0-1.26-.24-2.63-.71-4.1-.49-1.46-1.34-3.06-2.59-4.79-1.25-1.73-2.8-3.28-4.65-4.63-1.86-1.35-4.34-2.5-7.45-3.43-3.1-.93-6.58-1.39-10.4-1.39s-7.55,.46-10.95,1.36c-3.39,.91-6.29,2.13-8.71,3.65-2.41,1.53-4.49,3.29-6.21,5.3-1.73,2.01-3.01,4.11-3.85,6.3-.84,2.19-1.26,4.4-1.26,6.64l16.9,1.49c.69-2.05,1.61-3.83,2.75-5.35,1.15-1.53,2.24-2.63,3.23-3.31,1-.69,2.08-1.24,3.21-1.65,1.15-.41,1.93-.62,2.33-.67,.4-.04,.71-.05,.95-.05,3.34,0,5.65,.99,6.95,2.95,.81,1.19,1.21,2.99,1.21,5.41v7.08c-1.9,.08-3.8,.2-5.7,.36Zm5.71,18.99c0,2.08-.27,3.96-.81,5.63-1.15,3.64-3.34,5.93-6.55,6.85-2.8,.83-5.46,.41-7.99-1.23-2.69-1.75-4.03-4.23-4.03-7.41,0-2.49,.62-4.61,1.88-6.39,1.25-1.76,2.91-3.09,5-3.96,2.09-.88,4.13-1.5,6.13-1.86,1.99-.38,4.13-.6,6.38-.68v9.05Zm41.9,27.36c-.54-.68-1.99-1.11-4.36-1.34s-4.44-.21-6.21,.05c-1.91,.23-3.89,.78-5.91,1.68-2.04,.89-2.93,1.64-2.7,2.23l.09,.16,.11,.09,.18,.02h.57c.1,0,.23-.01,.4-.02,.18-.01,.34-.04,.49-.05s.36-.04,.64-.05c.26-.01,.51-.05,.75-.09,.04,0,.46-.04,1.29-.11,.82-.07,1.42-.12,1.79-.16,.36-.04,.98-.08,1.81-.11,.84-.04,1.51-.04,2.01,0s1.06,.09,1.7,.14c.64,.05,1.15,.16,1.55,.34,.4,.16,.7,.38,.89,.64,.65,.83,.53,2.65-.38,5.49-.9,2.84-1.75,5.1-2.55,6.78-.35,.71-.35,1.15,0,1.34,.35,.19,.84,.01,1.49-.5,1.95-1.53,3.58-3.83,4.89-6.91,.76-1.83,1.31-3.73,1.64-5.71,.3-1.99,.25-3.28-.16-3.88Z"/></svg>