<?xml version="1.0" encoding="UTF-8"?><svg id="a" xmlns="http://www.w3.org/2000/svg" viewBox="0 0 92.61 94.51"><defs><style>.b{fill:#8e7bef;}</style></defs><path class="b" d="M91.7,38.39c.59,3.16,.91,6.47,.91,9.92,0,27-18.07,46.19-45.36,46.19-6.21,0-12.35-1.22-18.09-3.59-5.73-2.37-10.94-5.85-15.33-10.24-4.39-4.39-7.87-9.6-10.24-15.33C1.22,59.61,0,53.46,0,47.25c0-6.21,1.22-12.35,3.59-18.09,2.37-5.73,5.85-10.94,10.24-15.33,4.39-4.39,9.6-7.87,15.33-10.24C34.9,1.22,41.05,0,47.25,0,60.01,0,70.68,4.69,78.86,12.32l-13.32,13.32v-.03c-4.96-4.72-11.25-7.15-18.28-7.15-15.59,0-28.26,13.17-28.26,28.77s12.67,28.79,28.26,28.79c14.15,0,23.78-8.09,25.75-19.2h-25.75v-18.43h44.45Z"/></svg>