<?xml version="1.0" encoding="UTF-8"?><svg id="a" xmlns="http://www.w3.org/2000/svg" xmlns:xlink="http://www.w3.org/1999/xlink" viewBox="0 0 102.41 102.41"><defs><style>.c{clip-path:url(#b);}.d{fill:none;}.e{fill:#8e7bef;}</style><clipPath id="b"><rect class="d" width="102.41" height="102.41" rx="10" ry="10"/></clipPath></defs><g class="c"><path class="e" d="M51.2,0C37.62,0,24.6,5.39,15,15,5.39,24.6,0,37.62,0,51.2s5.39,26.6,15,36.21c9.6,9.6,22.63,15,36.21,15s26.6-5.39,36.21-15,15-22.63,15-36.21-5.39-26.6-15-36.21C77.81,5.39,64.78,0,51.2,0h0Zm23.48,73.85c-.22,.36-.51,.67-.84,.92-.34,.25-.72,.42-1.13,.52-.41,.1-.83,.11-1.25,.05-.41-.07-.81-.21-1.17-.43-12.03-7.34-27.16-9.01-44.98-4.93-.83,.19-1.69,.04-2.41-.41-.72-.45-1.23-1.17-1.41-1.99-.19-.83-.04-1.69,.41-2.41,.45-.72,1.17-1.23,1.99-1.41,19.51-4.45,36.24-2.54,49.73,5.71,.72,.44,1.24,1.15,1.44,1.98,.2,.82,.06,1.69-.38,2.41Zm6.27-13.94c-.55,.9-1.44,1.55-2.47,1.79-1.03,.25-2.12,.07-3.02-.48-13.76-8.46-34.74-10.91-51.02-5.97-.99,.24-2.03,.08-2.92-.42-.88-.51-1.54-1.33-1.84-2.31-.3-.97-.21-2.03,.24-2.94,.45-.91,1.24-1.62,2.19-1.97,18.59-5.64,41.71-2.91,57.51,6.8,.9,.55,1.55,1.44,1.8,2.47,.25,1.03,.08,2.12-.48,3.02Zm.54-14.52c-16.5-9.81-43.73-10.71-59.49-5.93-1.22,.37-2.53,.24-3.65-.36s-1.96-1.62-2.32-2.83c-.37-1.22-.24-2.53,.36-3.65,.6-1.12,1.62-1.96,2.83-2.32,18.08-5.49,48.15-4.43,67.15,6.85,1.09,.65,1.88,1.7,2.2,2.94,.31,1.23,.13,2.54-.52,3.63-.65,1.09-1.7,1.88-2.94,2.2-1.23,.31-2.54,.13-3.63-.52Z"/></g></svg>